<svg width="145" height="146" viewBox="0 0 145 146" fill="none" xmlns="http://www.w3.org/2000/svg">
<rect width="145" height="146" rx="14.5" fill="#6741D9"/>
<path d="M95.8329 64.063H86.204C85.9294 62.484 85.4231 61.0851 84.685 59.8665C83.947 58.6307 83.0287 57.5837 81.9302 56.7255C80.8317 55.8673 79.5788 55.2237 78.1713 54.7946C76.7811 54.3483 75.2792 54.1252 73.6658 54.1252C70.7995 54.1252 68.2592 54.8461 66.0451 56.2878C63.831 57.7124 62.0974 59.8064 60.8445 62.5698C59.5915 65.316 58.965 68.6715 58.965 72.6364C58.965 76.6699 59.5915 80.0683 60.8445 82.8317C62.1146 85.5779 63.8481 87.6547 66.0451 89.0621C68.2592 90.4524 70.7909 91.1475 73.6401 91.1475C75.2192 91.1475 76.6953 90.9416 78.0684 90.5297C79.4586 90.1006 80.703 89.4741 81.8015 88.6502C82.9171 87.8263 83.8526 86.8137 84.6078 85.6122C85.3802 84.4107 85.9122 83.0376 86.204 81.4929L95.8329 81.5444C95.4725 84.0503 94.6915 86.4018 93.4901 88.5987C92.3058 90.7957 90.7524 92.7352 88.8301 94.4173C86.9077 96.0821 84.6593 97.3866 82.0847 98.3306C79.5101 99.2575 76.6523 99.7209 73.5114 99.7209C68.8771 99.7209 64.7406 98.6481 61.1019 96.5027C57.4632 94.3572 54.5968 91.2591 52.5028 87.2085C50.4089 83.1578 49.3619 78.3004 49.3619 72.6364C49.3619 66.9551 50.4174 62.0978 52.5286 58.0643C54.6397 54.0136 57.5147 50.9155 61.1534 48.7701C64.7921 46.6246 68.9115 45.5518 73.5114 45.5518C76.4464 45.5518 79.1754 45.9638 81.6985 46.7876C84.2216 47.6115 86.4701 48.8216 88.4439 50.4178C90.4177 51.9969 92.0397 53.9364 93.3098 56.2363C94.5971 58.5191 95.4382 61.128 95.8329 64.063Z" fill="white"/>
</svg>
